# xmcd
#
# Track frame offsets:
#	150
#	14118
#	38010
#	57065
#	77300
#	96482
#	114280
#	126399
#	141873
#	158441
#	176824
#	194241
#
# Disc length: 2817 seconds
#
# Revision: 0
# Processed by: cddbd v1.5.1PL0 Copyright (c) Steve Scherf et al.
# Submitted via: dBpowerAMP V4.0
#
DISCID=a10aff0c
DTITLE=Jenny Jumpstart - Jenny Jumpstart
DYEAR=1900
DGENRE=
TTITLE0=i watched you go
TTITLE1=corner girl
TTITLE2=creepin nite
TTITLE3=john hardy
TTITLE4=the grave
TTITLE5=old man winston
TTITLE6=loneliest highway in america
TTITLE7=if a beer bottle had a nipple on it
TTITLE8=cryin like a baby
TTITLE9=i've been let down
TTITLE10=big iron skillet - i love you honey
TTITLE11=sea of heartbreak
EXTD=great local artist, little lady with a great big voice
EXTT0=
EXTT1=
EXTT2=
EXTT3=
EXTT4=
EXTT5=
EXTT6=
EXTT7=
EXTT8=
EXTT9=
EXTT10=
EXTT11=
PLAYORDER=
